<svg id="Layer_1" data-name="Layer 1" xmlns="http://www.w3.org/2000/svg" viewBox="0 0 254.18 35.73"><title>GossamerLogo_Primary</title><path d="M55.26,28.93a16.2,16.2,0,0,0,2-.11A10.77,10.77,0,0,0,59,28.47a10.54,10.54,0,0,0,1.48-.55q0.7-.32,1.41-0.73V21.45h-4.1a0.39,0.39,0,0,1-.28-0.11,0.32,0.32,0,0,1-.11-0.24V20.26h5.9v7.59a14.1,14.1,0,0,1-1.66,1,11.14,11.14,0,0,1-1.84.73,14.52,14.52,0,0,1-2.11.45,18,18,0,0,1-2.47.16,11.08,11.08,0,0,1-4.21-.78,9.33,9.33,0,0,1-3.27-2.2,9.91,9.91,0,0,1-2.12-3.45,12.76,12.76,0,0,1-.75-4.49,12.71,12.71,0,0,1,.75-4.48,9.76,9.76,0,0,1,2.14-3.44,9.42,9.42,0,0,1,3.37-2.2,12.09,12.09,0,0,1,4.44-.78,14.14,14.14,0,0,1,2.25.17A10.3,10.3,0,0,1,59.68,9a8.85,8.85,0,0,1,1.66.8,11,11,0,0,1,1.48,1.09l-0.41.66a0.42,0.42,0,0,1-.38.23,0.54,0.54,0,0,1-.26-0.06,3.13,3.13,0,0,1-.66-0.42A7.1,7.1,0,0,0,60,10.62,9.69,9.69,0,0,0,58.13,10a10.72,10.72,0,0,0-2.67-.29,10.12,10.12,0,0,0-3.75.66,7.94,7.94,0,0,0-2.86,1.9,8.41,8.41,0,0,0-1.82,3,11.74,11.74,0,0,0-.64,4A11.87,11.87,0,0,0,47,23.32a8.67,8.67,0,0,0,1.82,3,7.85,7.85,0,0,0,2.8,1.91A9.54,9.54,0,0,0,55.26,28.93Z" style="fill:#393e42"/><path d="M74.26,14.69a7.23,7.23,0,0,1,2.89.55A5.9,5.9,0,0,1,79.3,16.8a6.92,6.92,0,0,1,1.33,2.44,10.35,10.35,0,0,1,.46,3.19,10.29,10.29,0,0,1-.46,3.18A6.94,6.94,0,0,1,79.3,28a5.81,5.81,0,0,1-2.15,1.55,8,8,0,0,1-5.78,0A5.88,5.88,0,0,1,69.22,28a6.87,6.87,0,0,1-1.34-2.43,10.29,10.29,0,0,1-.46-3.18,10.35,10.35,0,0,1,.46-3.19,6.85,6.85,0,0,1,1.34-2.44,6,6,0,0,1,2.16-1.56A7.23,7.23,0,0,1,74.26,14.69Zm0,14.31a5.57,5.57,0,0,0,2.34-.46,4.44,4.44,0,0,0,1.67-1.32,5.83,5.83,0,0,0,1-2.07,10.33,10.33,0,0,0,.33-2.72,10.36,10.36,0,0,0-.33-2.72,5.89,5.89,0,0,0-1-2.09,4.47,4.47,0,0,0-1.67-1.34,6.12,6.12,0,0,0-4.69,0,4.47,4.47,0,0,0-1.67,1.34,6,6,0,0,0-1,2.09,10.13,10.13,0,0,0-.34,2.72,10.1,10.1,0,0,0,.34,2.72,5.91,5.91,0,0,0,1,2.07,4.45,4.45,0,0,0,1.67,1.32A5.56,5.56,0,0,0,74.26,29Z" style="fill:#393e42"/><path d="M93.73,16.8a0.35,0.35,0,0,1-.33.21A0.83,0.83,0,0,1,93,16.83a6.76,6.76,0,0,0-.69-0.42A5.66,5.66,0,0,0,91.22,16a5.43,5.43,0,0,0-1.53-.19A4.5,4.5,0,0,0,88.2,16a3.64,3.64,0,0,0-1.15.62,2.85,2.85,0,0,0-.74.91,2.37,2.37,0,0,0-.26,1.09,1.86,1.86,0,0,0,.36,1.17,3.1,3.1,0,0,0,.95.8,7.19,7.19,0,0,0,1.33.57l1.53,0.48c0.52,0.16,1,.34,1.53.54a5.77,5.77,0,0,1,1.33.73A3.49,3.49,0,0,1,94,24a3.06,3.06,0,0,1,.36,1.54,4.69,4.69,0,0,1-.35,1.83,4.17,4.17,0,0,1-1,1.46,4.92,4.92,0,0,1-1.65,1,6.4,6.4,0,0,1-2.23.36,6.73,6.73,0,0,1-2.73-.5,7.64,7.64,0,0,1-2.05-1.32l0.35-.51a0.58,0.58,0,0,1,.17-0.18,0.47,0.47,0,0,1,.26-0.06,0.84,0.84,0,0,1,.48.24,5.93,5.93,0,0,0,1.89,1,5.13,5.13,0,0,0,1.7.24,4.91,4.91,0,0,0,1.67-.26,3.47,3.47,0,0,0,1.21-.72,3,3,0,0,0,.73-1.06,3.38,3.38,0,0,0,.25-1.29,2.08,2.08,0,0,0-.36-1.25,3.11,3.11,0,0,0-.95-0.84,6.71,6.71,0,0,0-1.33-.59l-1.54-.48c-0.53-.16-1-0.34-1.54-0.53A5.6,5.6,0,0,1,86,21.37a3.5,3.5,0,0,1-1-1.06,3.07,3.07,0,0,1-.36-1.56A3.59,3.59,0,0,1,85,17.21a3.92,3.92,0,0,1,1-1.3A4.84,4.84,0,0,1,87.59,15a6.06,6.06,0,0,1,2.07-.33,6.93,6.93,0,0,1,2.43.4,6,6,0,0,1,2,1.22Z" style="fill:#393e42"/><path d="M107.3,16.8A0.35,0.35,0,0,1,107,17a0.83,0.83,0,0,1-.43-0.19,6.76,6.76,0,0,0-.69-0.42,5.66,5.66,0,0,0-1.05-.42,5.43,5.43,0,0,0-1.53-.19,4.5,4.5,0,0,0-1.49.23,3.64,3.64,0,0,0-1.15.62,2.85,2.85,0,0,0-.74.91,2.37,2.37,0,0,0-.26,1.09,1.86,1.86,0,0,0,.36,1.17,3.1,3.1,0,0,0,.95.8,7.19,7.19,0,0,0,1.33.57l1.53,0.48c0.52,0.16,1,.34,1.53.54a5.77,5.77,0,0,1,1.33.73,3.49,3.49,0,0,1,1,1.07,3.06,3.06,0,0,1,.36,1.54,4.69,4.69,0,0,1-.35,1.83,4.17,4.17,0,0,1-1,1.46,4.92,4.92,0,0,1-1.65,1,6.4,6.4,0,0,1-2.23.36,6.73,6.73,0,0,1-2.73-.5,7.64,7.64,0,0,1-2.05-1.32l0.35-.51a0.58,0.58,0,0,1,.17-0.18,0.47,0.47,0,0,1,.26-0.06,0.84,0.84,0,0,1,.48.24,5.93,5.93,0,0,0,1.89,1,5.13,5.13,0,0,0,1.7.24,4.91,4.91,0,0,0,1.67-.26,3.47,3.47,0,0,0,1.21-.72,3,3,0,0,0,.73-1.06,3.38,3.38,0,0,0,.25-1.29,2.08,2.08,0,0,0-.36-1.25,3.11,3.11,0,0,0-.95-0.84,6.71,6.71,0,0,0-1.33-.59l-1.54-.48c-0.53-.16-1-0.34-1.54-0.53a5.6,5.6,0,0,1-1.33-.72,3.5,3.5,0,0,1-1-1.06,3.07,3.07,0,0,1-.36-1.56,3.59,3.59,0,0,1,.35-1.54,3.92,3.92,0,0,1,1-1.3,4.84,4.84,0,0,1,1.56-.89,6.06,6.06,0,0,1,2.07-.33,6.93,6.93,0,0,1,2.43.4,6,6,0,0,1,2,1.22Z" style="fill:#393e42"/><path d="M122.19,29.94a0.52,0.52,0,0,1-.56-0.42l-0.21-1.92a15.89,15.89,0,0,1-1.23,1.09,7.36,7.36,0,0,1-1.27.81,6.21,6.21,0,0,1-1.43.51,7.81,7.81,0,0,1-1.69.17A5,5,0,0,1,114.3,30a3.65,3.65,0,0,1-1.28-.69,3.39,3.39,0,0,1-.9-1.2,4.13,4.13,0,0,1-.34-1.76,3.12,3.12,0,0,1,.54-1.76,4.46,4.46,0,0,1,1.7-1.42,11.15,11.15,0,0,1,3-1,25.74,25.74,0,0,1,4.37-.42V20.16a5,5,0,0,0-.9-3.2,3.2,3.2,0,0,0-2.66-1.12,5,5,0,0,0-1.85.3,6.45,6.45,0,0,0-1.29.66,8.3,8.3,0,0,0-.86.66,0.93,0.93,0,0,1-.56.3,0.49,0.49,0,0,1-.45-0.27l-0.26-.44A8.7,8.7,0,0,1,115,15.28a6.9,6.9,0,0,1,2.94-.6,5.36,5.36,0,0,1,2.11.38,3.9,3.9,0,0,1,1.5,1.1,4.82,4.82,0,0,1,.9,1.74,8,8,0,0,1,.3,2.27v9.77h-0.57Zm-6-.8a6.4,6.4,0,0,0,1.61-.19,6,6,0,0,0,1.36-.53,6.57,6.57,0,0,0,1.17-.81q0.54-.47,1.07-1V22.7a26.58,26.58,0,0,0-3.69.32,10.61,10.61,0,0,0-2.55.72,3.75,3.75,0,0,0-1.48,1.08,2.29,2.29,0,0,0-.47,1.42,3.15,3.15,0,0,0,.25,1.3,2.58,2.58,0,0,0,.66.9A2.53,2.53,0,0,0,115,29,3.82,3.82,0,0,0,116.15,29.14Z" style="fill:#393e42"/><path d="M127.88,29.94v-15h0.78a0.41,0.41,0,0,1,.45.38l0.14,2.17a9.46,9.46,0,0,1,.94-1.13,6.13,6.13,0,0,1,1.06-.88,5,5,0,0,1,1.21-.57,4.47,4.47,0,0,1,1.35-.2,3.59,3.59,0,0,1,2.62,1,5,5,0,0,1,1.33,2.66,5.18,5.18,0,0,1,.76-1.61,4.76,4.76,0,0,1,1.12-1.12,4.69,4.69,0,0,1,1.38-.66,5.43,5.43,0,0,1,1.53-.22,5.18,5.18,0,0,1,2,.37,4,4,0,0,1,1.51,1.09,4.94,4.94,0,0,1,1,1.78,8,8,0,0,1,.33,2.41v9.59h-1.43V20.35A5.16,5.16,0,0,0,145,17a3.31,3.31,0,0,0-2.71-1.15,4,4,0,0,0-1.5.29,3.65,3.65,0,0,0-1.27.85,4.12,4.12,0,0,0-.88,1.41,5.45,5.45,0,0,0-.32,2v9.59h-1.43V20.35A5.49,5.49,0,0,0,136,17a3,3,0,0,0-2.55-1.16,3.85,3.85,0,0,0-2.26.73,6.94,6.94,0,0,0-1.86,2V29.94h-1.43Z" style="fill:#393e42"/><path d="M158.13,14.69a6.21,6.21,0,0,1,2.35.44,5.28,5.28,0,0,1,1.87,1.27,5.87,5.87,0,0,1,1.24,2.06,8.18,8.18,0,0,1,.44,2.81,0.76,0.76,0,0,1-.1.45,0.38,0.38,0,0,1-.31.12H152.79v0.29a10.19,10.19,0,0,0,.39,3,6.09,6.09,0,0,0,1.12,2.15,4.61,4.61,0,0,0,1.75,1.3,5.81,5.81,0,0,0,2.29.44,6.85,6.85,0,0,0,2-.25,7.22,7.22,0,0,0,1.39-.56,7.63,7.63,0,0,0,.9-0.56,1,1,0,0,1,.48-0.25,0.35,0.35,0,0,1,.3.15L163.77,28a4.1,4.1,0,0,1-1,.84,6.82,6.82,0,0,1-1.33.67,9.6,9.6,0,0,1-1.57.45,8.71,8.71,0,0,1-1.68.16,7.12,7.12,0,0,1-2.81-.53A6,6,0,0,1,153.26,28a7.16,7.16,0,0,1-1.4-2.51,10.74,10.74,0,0,1-.49-3.4,9.25,9.25,0,0,1,.46-3,6.82,6.82,0,0,1,1.33-2.35,6,6,0,0,1,2.13-1.54A7,7,0,0,1,158.13,14.69Zm0,1.07a5.66,5.66,0,0,0-2.08.36,4.56,4.56,0,0,0-1.59,1,5.31,5.31,0,0,0-1.08,1.63,7.44,7.44,0,0,0-.55,2.13h9.88a6.61,6.61,0,0,0-.33-2.16,4.62,4.62,0,0,0-.93-1.62,4,4,0,0,0-1.45-1A4.78,4.78,0,0,0,158.15,15.76Z" style="fill:#393e42"/><path d="M168.49,29.94v-15h0.75a0.53,0.53,0,0,1,.37.11,0.52,0.52,0,0,1,.13.36l0.12,3.17a7.14,7.14,0,0,1,1.93-2.86,4.41,4.41,0,0,1,3-1,5.2,5.2,0,0,1,1.25.14,4.86,4.86,0,0,1,1.09.41l-0.2,1a0.27,0.27,0,0,1-.3.24,0.82,0.82,0,0,1-.26-0.06l-0.41-.14a5.07,5.07,0,0,0-1.44-.2,3.86,3.86,0,0,0-2.8,1.06,7.53,7.53,0,0,0-1.77,3v9.75h-1.43Z" style="fill:#393e42"/><path d="M201,28.93a16.2,16.2,0,0,0,2-.11,10.77,10.77,0,0,0,1.68-.34,10.54,10.54,0,0,0,1.48-.55q0.7-.32,1.41-0.73V21.45h-4.1a0.39,0.39,0,0,1-.28-0.11,0.32,0.32,0,0,1-.11-0.24V20.26H209v7.59a14.1,14.1,0,0,1-1.66,1,11.14,11.14,0,0,1-1.84.73,14.52,14.52,0,0,1-2.11.45,18,18,0,0,1-2.47.16,11.08,11.08,0,0,1-4.21-.78,9.33,9.33,0,0,1-3.27-2.2,9.91,9.91,0,0,1-2.12-3.45,12.76,12.76,0,0,1-.75-4.49,12.71,12.71,0,0,1,.75-4.48,9.76,9.76,0,0,1,2.14-3.44,9.42,9.42,0,0,1,3.37-2.2,12.09,12.09,0,0,1,4.44-.78,14.14,14.14,0,0,1,2.25.17,10.3,10.3,0,0,1,1.92.49,8.85,8.85,0,0,1,1.66.8,11,11,0,0,1,1.48,1.09l-0.41.66a0.42,0.42,0,0,1-.38.23,0.54,0.54,0,0,1-.26-0.06,3.13,3.13,0,0,1-.66-0.42,7.1,7.1,0,0,0-1.16-.69,9.69,9.69,0,0,0-1.83-.65,10.72,10.72,0,0,0-2.67-.29,10.12,10.12,0,0,0-3.75.66,7.94,7.94,0,0,0-2.86,1.9,8.41,8.41,0,0,0-1.82,3,11.74,11.74,0,0,0-.64,4,11.87,11.87,0,0,0,.65,4.06,8.67,8.67,0,0,0,1.82,3,7.85,7.85,0,0,0,2.8,1.91A9.54,9.54,0,0,0,201,28.93Z" style="fill:#393e42"/><path d="M219.94,14.69a6.21,6.21,0,0,1,2.35.44,5.28,5.28,0,0,1,1.87,1.27,5.87,5.87,0,0,1,1.24,2.06,8.18,8.18,0,0,1,.44,2.81,0.76,0.76,0,0,1-.1.45,0.38,0.38,0,0,1-.31.12H214.6v0.29a10.19,10.19,0,0,0,.39,3,6.09,6.09,0,0,0,1.12,2.15,4.61,4.61,0,0,0,1.75,1.3,5.81,5.81,0,0,0,2.29.44,6.85,6.85,0,0,0,2-.25,7.22,7.22,0,0,0,1.39-.56,7.63,7.63,0,0,0,.9-0.56,1,1,0,0,1,.48-0.25,0.35,0.35,0,0,1,.3.15L225.58,28a4.1,4.1,0,0,1-1,.84,6.82,6.82,0,0,1-1.33.67,9.6,9.6,0,0,1-1.57.45,8.71,8.71,0,0,1-1.68.16,7.12,7.12,0,0,1-2.81-.53A6,6,0,0,1,215.07,28a7.16,7.16,0,0,1-1.4-2.51,10.74,10.74,0,0,1-.49-3.4,9.25,9.25,0,0,1,.46-3A6.82,6.82,0,0,1,215,16.79a6,6,0,0,1,2.13-1.54A7,7,0,0,1,219.94,14.69Zm0,1.07a5.66,5.66,0,0,0-2.08.36,4.56,4.56,0,0,0-1.59,1,5.31,5.31,0,0,0-1.08,1.63,7.44,7.44,0,0,0-.55,2.13h9.88a6.61,6.61,0,0,0-.33-2.16,4.62,4.62,0,0,0-.93-1.62,4,4,0,0,0-1.45-1A4.78,4.78,0,0,0,220,15.76Z" style="fill:#393e42"/><path d="M239.87,29.94a0.52,0.52,0,0,1-.56-0.42L239.1,27.6a15.68,15.68,0,0,1-1.23,1.09,7.25,7.25,0,0,1-1.27.81,6.18,6.18,0,0,1-1.43.51,7.79,7.79,0,0,1-1.69.17A5,5,0,0,1,232,30a3.65,3.65,0,0,1-1.28-.69,3.41,3.41,0,0,1-.9-1.2,4.17,4.17,0,0,1-.34-1.76,3.12,3.12,0,0,1,.54-1.76,4.46,4.46,0,0,1,1.7-1.42,11.18,11.18,0,0,1,3-1,25.7,25.7,0,0,1,4.37-.42V20.16a5,5,0,0,0-.9-3.2,3.2,3.2,0,0,0-2.66-1.12,5,5,0,0,0-1.85.3,6.45,6.45,0,0,0-1.29.66,8.68,8.68,0,0,0-.86.66,0.93,0.93,0,0,1-.56.3,0.49,0.49,0,0,1-.45-0.27l-0.26-.44a8.71,8.71,0,0,1,2.47-1.78,6.9,6.9,0,0,1,2.94-.6,5.36,5.36,0,0,1,2.11.38,3.88,3.88,0,0,1,1.5,1.1,4.82,4.82,0,0,1,.9,1.74,8,8,0,0,1,.3,2.27v9.77h-0.57Zm-6-.8a6.4,6.4,0,0,0,1.61-.19,6,6,0,0,0,1.36-.53,6.62,6.62,0,0,0,1.17-.81c0.36-.31.72-0.65,1.07-1V22.7a26.58,26.58,0,0,0-3.69.32,10.57,10.57,0,0,0-2.55.72,3.75,3.75,0,0,0-1.48,1.08,2.3,2.3,0,0,0-.48,1.42,3.14,3.14,0,0,0,.25,1.3,2.56,2.56,0,0,0,.66.9,2.53,2.53,0,0,0,.95.52A3.82,3.82,0,0,0,233.84,29.14Z" style="fill:#393e42"/><path d="M245.57,29.94v-15h0.76a0.53,0.53,0,0,1,.37.11,0.53,0.53,0,0,1,.13.36l0.12,3.17a7.14,7.14,0,0,1,1.93-2.86,4.41,4.41,0,0,1,3-1,5.2,5.2,0,0,1,1.25.14,4.82,4.82,0,0,1,1.09.41l-0.2,1a0.27,0.27,0,0,1-.3.24,0.81,0.81,0,0,1-.26-0.06L253,16.28a5.1,5.1,0,0,0-1.44-.2,3.86,3.86,0,0,0-2.8,1.06,7.54,7.54,0,0,0-1.77,3v9.75h-1.43Z" style="fill:#393e42"/><path d="M8.56,35.43A20.06,20.06,0,0,1,13.31.1C13.94-.12,14,0,13.41.38A8.21,8.21,0,0,0,11.8,1.61,9.78,9.78,0,0,0,8.7,8.76q0,6.32,6,9.15l-2.83,4.25a4.55,4.55,0,0,0,4.14,5q3.16,0.6,8.66,1.2,3.54,0.38,3.54,2.23a2.76,2.76,0,0,1-1.77,2.83,16.32,16.32,0,0,1-5.61.71A15.21,15.21,0,0,1,14,32.55v-3.7H9.73Z" style="fill:#393e42"/><path d="M20.78,14.32q2.67,0,3.67-1.52a9,9,0,0,0,1-4.84q0-5.17-5.34-5.17-2.72,0-3.81,1.52-0.76,1-.76,3.95a6.94,6.94,0,0,0,1.28,4.52A4.82,4.82,0,0,0,20.78,14.32Z" style="fill:#393e42"/><path d="M29,1a9.7,9.7,0,0,1,1.71,1.77,10.85,10.85,0,0,1,1.58,5.66,9.18,9.18,0,0,1-3.51,7.38A13.39,13.39,0,0,1,20,18.73q-0.76,0-1.36-.06L18,20.31a1.08,1.08,0,0,0-.11.49q0,0.54,1.42.76t4.25,0.6l4.3,0.6a8.3,8.3,0,0,1,4.68,2.07A6,6,0,0,1,34,29.18a8.23,8.23,0,0,1-2.9,6.23c-0.28.26-.13,0.45,0.21,0.22a20.06,20.06,0,0,0,.39-33C29.92,1.31,29.11.95,29,1Z" style="fill:#393e42"/></svg>