<svg id="Layer_1" data-name="Layer 1" xmlns="http://www.w3.org/2000/svg" viewBox="0 0 738.5 147.39"><title>gossamer-gear-logo</title><path d="M573.86,787.93a51.43,51.43,0,0,0,6.13-.33,34.07,34.07,0,0,0,5.14-1,32.87,32.87,0,0,0,4.52-1.62q2.14-1,4.31-2.16v-17H581.42a1.23,1.23,0,0,1-.85-0.31,0.94,0.94,0,0,1-.35-0.71v-2.49h18v22.38a42.91,42.91,0,0,1-5.07,2.94,34.55,34.55,0,0,1-5.62,2.16,44.69,44.69,0,0,1-6.45,1.33,56.65,56.65,0,0,1-7.56.47,34.93,34.93,0,0,1-12.88-2.29,28.65,28.65,0,0,1-10-6.5,29.13,29.13,0,0,1-6.48-10.17,39.24,39.24,0,0,1,0-26.5A28.09,28.09,0,0,1,561,729.52a38.15,38.15,0,0,1,13.58-2.29,45.13,45.13,0,0,1,6.89.49,33,33,0,0,1,5.88,1.45,28.1,28.1,0,0,1,5.07,2.36,34.37,34.37,0,0,1,4.52,3.23l-1.24,2a1.29,1.29,0,0,1-1.15.67,1.79,1.79,0,0,1-.78-0.18,9.76,9.76,0,0,1-2-1.25,21.74,21.74,0,0,0-3.55-2,30.31,30.31,0,0,0-5.6-1.91,33.9,33.9,0,0,0-8.16-.85,31.92,31.92,0,0,0-11.48,2,24.44,24.44,0,0,0-8.74,5.61,24.71,24.71,0,0,0-5.58,8.9,33.53,33.53,0,0,0-2,11.79,34,34,0,0,0,2,12,25.45,25.45,0,0,0,5.55,9,24,24,0,0,0,8.57,5.63A30.05,30.05,0,0,0,573.86,787.93Z" transform="translate(-372.2 -680.65)" style="fill:#393e42"/><path d="M628.25,745.92a22.75,22.75,0,0,1,8.83,1.63,18,18,0,0,1,6.57,4.61,20.22,20.22,0,0,1,4.08,7.19,32.13,32.13,0,0,1,0,18.8,20.23,20.23,0,0,1-4.08,7.16,17.74,17.74,0,0,1-6.57,4.58,25.13,25.13,0,0,1-17.65,0,18,18,0,0,1-6.59-4.58,20,20,0,0,1-4.1-7.16,32.13,32.13,0,0,1,0-18.8,20,20,0,0,1,4.1-7.19,18.2,18.2,0,0,1,6.59-4.61A22.74,22.74,0,0,1,628.25,745.92Zm0,42.23a17.55,17.55,0,0,0,7.17-1.36,13.5,13.5,0,0,0,5.12-3.89,17,17,0,0,0,3.07-6.12,32.24,32.24,0,0,0,0-16,17.17,17.17,0,0,0-3.07-6.16,13.61,13.61,0,0,0-5.12-3.94,19.32,19.32,0,0,0-14.34,0,13.62,13.62,0,0,0-5.12,3.94,17.43,17.43,0,0,0-3.09,6.16,31.54,31.54,0,0,0,0,16A17.21,17.21,0,0,0,616,782.9a13.51,13.51,0,0,0,5.12,3.89A17.56,17.56,0,0,0,628.25,788.15Z" transform="translate(-372.2 -680.65)" style="fill:#393e42"/><path d="M684.08,752.15a1.07,1.07,0,0,1-1,.62,2.54,2.54,0,0,1-1.31-.56,21.44,21.44,0,0,0-2.12-1.25,17.6,17.6,0,0,0-3.23-1.25,17,17,0,0,0-4.68-.56,14.21,14.21,0,0,0-4.54.69,11.39,11.39,0,0,0-3.5,1.84,8.44,8.44,0,0,0-2.26,2.68,6.82,6.82,0,0,0-.81,3.22,5.34,5.34,0,0,0,1.11,3.46,9.44,9.44,0,0,0,2.9,2.35,22.53,22.53,0,0,0,4.08,1.69q2.28,0.71,4.68,1.42t4.68,1.58a17.76,17.76,0,0,1,4.08,2.16,10.33,10.33,0,0,1,2.9,3.16,8.75,8.75,0,0,1,1.11,4.54,13.37,13.37,0,0,1-1.08,5.38,12.26,12.26,0,0,1-3.13,4.32,15.14,15.14,0,0,1-5,2.89,20.26,20.26,0,0,1-6.82,1.07,21.22,21.22,0,0,1-8.34-1.49,23.52,23.52,0,0,1-6.27-3.89l1.06-1.51a1.75,1.75,0,0,1,.51-0.54,1.46,1.46,0,0,1,.78-0.18,2.57,2.57,0,0,1,1.48.71,18.36,18.36,0,0,0,2.28,1.54,19.22,19.22,0,0,0,3.5,1.54,16.3,16.3,0,0,0,5.19.71,15.39,15.39,0,0,0,5.12-.78,10.75,10.75,0,0,0,3.69-2.11,8.82,8.82,0,0,0,2.24-3.14,9.7,9.7,0,0,0,.76-3.8,6,6,0,0,0-1.11-3.69,9.42,9.42,0,0,0-2.9-2.49,20.78,20.78,0,0,0-4.08-1.74q-2.28-.71-4.7-1.42t-4.7-1.56a17.15,17.15,0,0,1-4.08-2.14,10.42,10.42,0,0,1-2.9-3.14,8.83,8.83,0,0,1-1.11-4.61,10.26,10.26,0,0,1,1.06-4.54,11.59,11.59,0,0,1,3-3.83,15,15,0,0,1,4.77-2.63,19.15,19.15,0,0,1,6.31-1,21.86,21.86,0,0,1,7.45,1.17,18.27,18.27,0,0,1,6,3.59Z" transform="translate(-372.2 -680.65)" style="fill:#393e42"/><path d="M721.88,752.15a1.07,1.07,0,0,1-1,.62,2.54,2.54,0,0,1-1.31-.56,21.21,21.21,0,0,0-2.12-1.25,17.57,17.57,0,0,0-3.23-1.25,17,17,0,0,0-4.68-.56,14.2,14.2,0,0,0-4.54.69,11.41,11.41,0,0,0-3.5,1.84,8.45,8.45,0,0,0-2.26,2.68,6.81,6.81,0,0,0-.81,3.22,5.34,5.34,0,0,0,1.11,3.46,9.44,9.44,0,0,0,2.9,2.35,22.53,22.53,0,0,0,4.08,1.69q2.28,0.71,4.68,1.42t4.68,1.58a17.78,17.78,0,0,1,4.08,2.16,10.35,10.35,0,0,1,2.9,3.16,8.76,8.76,0,0,1,1.11,4.54,13.35,13.35,0,0,1-1.08,5.38,12.26,12.26,0,0,1-3.13,4.32,15.15,15.15,0,0,1-5,2.89,20.25,20.25,0,0,1-6.82,1.07,21.22,21.22,0,0,1-8.34-1.49,23.52,23.52,0,0,1-6.27-3.89l1.06-1.51a1.75,1.75,0,0,1,.51-0.54,1.46,1.46,0,0,1,.78-0.18,2.57,2.57,0,0,1,1.47.71,18.43,18.43,0,0,0,2.28,1.54,19.22,19.22,0,0,0,3.5,1.54,16.3,16.3,0,0,0,5.19.71,15.38,15.38,0,0,0,5.12-.78,10.73,10.73,0,0,0,3.69-2.11,8.81,8.81,0,0,0,2.24-3.14,9.68,9.68,0,0,0,.76-3.8,6,6,0,0,0-1.11-3.69,9.41,9.41,0,0,0-2.9-2.49,20.76,20.76,0,0,0-4.08-1.74q-2.28-.71-4.7-1.42t-4.7-1.56a17.13,17.13,0,0,1-4.08-2.14,10.41,10.41,0,0,1-2.9-3.14,8.82,8.82,0,0,1-1.11-4.61,10.26,10.26,0,0,1,1.06-4.54,11.59,11.59,0,0,1,3-3.83,15,15,0,0,1,4.77-2.63,19.16,19.16,0,0,1,6.31-1,21.85,21.85,0,0,1,7.45,1.17,18.29,18.29,0,0,1,6,3.59Z" transform="translate(-372.2 -680.65)" style="fill:#393e42"/><path d="M763.68,790.91a1.57,1.57,0,0,1-1.71-1.25L761.33,784a47.51,47.51,0,0,1-3.76,3.21,22.64,22.64,0,0,1-3.89,2.4,19.63,19.63,0,0,1-4.38,1.49,24.27,24.27,0,0,1-5.16.51,15.73,15.73,0,0,1-4.56-.67,11.37,11.37,0,0,1-3.92-2,10.07,10.07,0,0,1-2.74-3.54,11.87,11.87,0,0,1-1-5.18,9,9,0,0,1,1.66-5.21,13.51,13.51,0,0,1,5.19-4.18,35.11,35.11,0,0,1,9.08-2.85,81.87,81.87,0,0,1,13.34-1.25v-4.63q0-6.14-2.74-9.46t-8.14-3.31a15.87,15.87,0,0,0-5.65.89,20.23,20.23,0,0,0-3.94,2,24.72,24.72,0,0,0-2.63,2,2.88,2.88,0,0,1-1.71.89,1.5,1.5,0,0,1-1.38-.8l-0.78-1.29a26.66,26.66,0,0,1,7.56-5.25,21.7,21.7,0,0,1,9-1.78,16.94,16.94,0,0,1,6.46,1.13,11.93,11.93,0,0,1,4.59,3.25,14,14,0,0,1,2.74,5.12,22.75,22.75,0,0,1,.92,6.7v28.84h-1.75Zm-18.44-2.36a20.3,20.3,0,0,0,4.91-.56,18.54,18.54,0,0,0,4.15-1.56,20.39,20.39,0,0,0,3.57-2.38q1.66-1.38,3.27-3V769.55a84.75,84.75,0,0,0-11.27,1,33.41,33.41,0,0,0-7.79,2.11,11.41,11.41,0,0,0-4.52,3.18,6.62,6.62,0,0,0-1.45,4.21,9,9,0,0,0,.76,3.85,7.66,7.66,0,0,0,2,2.67,7.94,7.94,0,0,0,2.9,1.54A12.13,12.13,0,0,0,745.25,788.55Z" transform="translate(-372.2 -680.65)" style="fill:#393e42"/><path d="M777.42,790.91V746.63h2.4a1.24,1.24,0,0,1,1.38,1.11l0.42,6.41a28.33,28.33,0,0,1,2.86-3.34,19,19,0,0,1,3.25-2.6,15.27,15.27,0,0,1,3.69-1.69,14,14,0,0,1,4.13-.6,11.22,11.22,0,0,1,8,2.83,14.6,14.6,0,0,1,4.06,7.85,15.17,15.17,0,0,1,2.32-4.76,14.32,14.32,0,0,1,3.43-3.32,14.48,14.48,0,0,1,4.21-2,17.06,17.06,0,0,1,4.67-.65,16.32,16.32,0,0,1,6.12,1.09,12.24,12.24,0,0,1,4.63,3.23,14.48,14.48,0,0,1,2.92,5.25,23,23,0,0,1,1,7.12v28.3h-4.38v-28.3q0-6.5-2.9-9.9t-8.3-3.4a12.62,12.62,0,0,0-4.59.84,11.16,11.16,0,0,0-3.87,2.51,12,12,0,0,0-2.67,4.16,15.56,15.56,0,0,0-1,5.79v28.3h-4.38v-28.3q0-6.45-2.67-9.88t-7.79-3.43a12.07,12.07,0,0,0-6.91,2.16,20.78,20.78,0,0,0-5.67,6v33.46h-4.38Z" transform="translate(-372.2 -680.65)" style="fill:#393e42"/><path d="M866.2,745.92a19.51,19.51,0,0,1,7.17,1.29,16.15,16.15,0,0,1,5.71,3.76,17.27,17.27,0,0,1,3.78,6.07,23.36,23.36,0,0,1,1.36,8.28,2.14,2.14,0,0,1-.3,1.33,1.16,1.16,0,0,1-.94.36h-33.1v0.85a29.06,29.06,0,0,0,1.2,8.77A17.74,17.74,0,0,0,854.5,783a14,14,0,0,0,5.35,3.85,18.25,18.25,0,0,0,7,1.29,21.68,21.68,0,0,0,6-.73,22.79,22.79,0,0,0,4.26-1.65,23.77,23.77,0,0,0,2.74-1.65,3.15,3.15,0,0,1,1.47-.73,1.07,1.07,0,0,1,.92.44l1.2,1.42a12.4,12.4,0,0,1-2.93,2.49,21.16,21.16,0,0,1-4.06,2,30.22,30.22,0,0,1-4.79,1.31,27.29,27.29,0,0,1-5.14.49,22.5,22.5,0,0,1-8.57-1.58,18.24,18.24,0,0,1-6.65-4.61,20.92,20.92,0,0,1-4.29-7.41,30.66,30.66,0,0,1-1.51-10,26.5,26.5,0,0,1,1.41-8.79,20,20,0,0,1,4.06-6.94,18.48,18.48,0,0,1,6.5-4.56A22,22,0,0,1,866.2,745.92Zm0.07,3.16a17.76,17.76,0,0,0-6.35,1.07,13.92,13.92,0,0,0-4.86,3.07,15.6,15.6,0,0,0-3.31,4.8,21.28,21.28,0,0,0-1.68,6.28h30.19a18.88,18.88,0,0,0-1-6.39,13.56,13.56,0,0,0-2.86-4.78,12.36,12.36,0,0,0-4.42-3A15.07,15.07,0,0,0,866.27,749.08Z" transform="translate(-372.2 -680.65)" style="fill:#393e42"/><path d="M894.18,790.91V746.63h2.3a1.67,1.67,0,0,1,1.13.31A1.52,1.52,0,0,1,898,748l0.37,9.34a21.05,21.05,0,0,1,5.9-8.43,13.79,13.79,0,0,1,9.08-3,16.29,16.29,0,0,1,3.83.42,15,15,0,0,1,3.32,1.22l-0.6,2.94a0.83,0.83,0,0,1-.92.71,2.57,2.57,0,0,1-.78-0.18c-0.34-.12-0.76-0.25-1.27-0.4a15.5,15.5,0,0,0-1.87-.4,16.17,16.17,0,0,0-2.54-.18,12,12,0,0,0-8.55,3.12,22.14,22.14,0,0,0-5.42,9v28.79h-4.38Z" transform="translate(-372.2 -680.65)" style="fill:#393e42"/><path d="M959.18,787.93a51.41,51.41,0,0,0,6.13-.33,34.11,34.11,0,0,0,5.14-1A32.94,32.94,0,0,0,975,785q2.14-1,4.31-2.16v-17H966.74a1.23,1.23,0,0,1-.85-0.31,0.94,0.94,0,0,1-.35-0.71v-2.49h18v22.38a43.09,43.09,0,0,1-5.07,2.94,34.53,34.53,0,0,1-5.62,2.16,44.68,44.68,0,0,1-6.45,1.33,56.66,56.66,0,0,1-7.56.47A34.93,34.93,0,0,1,946,789.33a28.64,28.64,0,0,1-10-6.5,29.13,29.13,0,0,1-6.48-10.17,39.24,39.24,0,0,1,0-26.5,28.1,28.1,0,0,1,16.85-16.64,38.16,38.16,0,0,1,13.58-2.29,45.13,45.13,0,0,1,6.89.49,33,33,0,0,1,5.88,1.45,28.14,28.14,0,0,1,5.07,2.36,34.47,34.47,0,0,1,4.52,3.23l-1.25,2a1.29,1.29,0,0,1-1.15.67,1.79,1.79,0,0,1-.78-0.18,9.79,9.79,0,0,1-2-1.25,21.69,21.69,0,0,0-3.55-2,30.29,30.29,0,0,0-5.6-1.91,33.92,33.92,0,0,0-8.16-.85,31.93,31.93,0,0,0-11.48,2,24.44,24.44,0,0,0-8.73,5.61,24.69,24.69,0,0,0-5.58,8.9,33.53,33.53,0,0,0-2,11.79,34,34,0,0,0,2,12,25.46,25.46,0,0,0,5.56,9,24,24,0,0,0,8.57,5.63A30.07,30.07,0,0,0,959.18,787.93Z" transform="translate(-372.2 -680.65)" style="fill:#393e42"/><path d="M1013.39,745.92a19.51,19.51,0,0,1,7.17,1.29,16.15,16.15,0,0,1,5.71,3.76,17.27,17.27,0,0,1,3.78,6.07,23.36,23.36,0,0,1,1.36,8.28,2.14,2.14,0,0,1-.3,1.33,1.16,1.16,0,0,1-.94.36h-33.1v0.85a29.06,29.06,0,0,0,1.2,8.77,17.74,17.74,0,0,0,3.41,6.34,14,14,0,0,0,5.35,3.85,18.25,18.25,0,0,0,7,1.29,21.68,21.68,0,0,0,6-.73,22.79,22.79,0,0,0,4.26-1.65,23.77,23.77,0,0,0,2.74-1.65,3.15,3.15,0,0,1,1.47-.73,1.07,1.07,0,0,1,.92.44l1.2,1.42a12.4,12.4,0,0,1-2.93,2.49,21.16,21.16,0,0,1-4.06,2,30.22,30.22,0,0,1-4.79,1.31,27.29,27.29,0,0,1-5.14.49,22.5,22.5,0,0,1-8.57-1.58,18.24,18.24,0,0,1-6.65-4.61,20.92,20.92,0,0,1-4.29-7.41,30.66,30.66,0,0,1-1.51-10,26.5,26.5,0,0,1,1.41-8.79,20,20,0,0,1,4.06-6.94,18.48,18.48,0,0,1,6.5-4.56A22,22,0,0,1,1013.39,745.92Zm0.07,3.16a17.76,17.76,0,0,0-6.35,1.07,13.92,13.92,0,0,0-4.86,3.07,15.6,15.6,0,0,0-3.31,4.8,21.28,21.28,0,0,0-1.68,6.28h30.19a18.88,18.88,0,0,0-1-6.39,13.56,13.56,0,0,0-2.86-4.78,12.36,12.36,0,0,0-4.42-3A15.07,15.07,0,0,0,1013.46,749.08Z" transform="translate(-372.2 -680.65)" style="fill:#393e42"/><path d="M1070.64,790.91a1.57,1.57,0,0,1-1.71-1.25l-0.64-5.65a47.86,47.86,0,0,1-3.76,3.21,22.64,22.64,0,0,1-3.89,2.4,19.63,19.63,0,0,1-4.38,1.49,24.27,24.27,0,0,1-5.16.51,15.73,15.73,0,0,1-4.56-.67,11.34,11.34,0,0,1-3.92-2,10.06,10.06,0,0,1-2.74-3.54,11.87,11.87,0,0,1-1-5.18,9,9,0,0,1,1.66-5.21,13.51,13.51,0,0,1,5.19-4.18,35.11,35.11,0,0,1,9.08-2.85,81.87,81.87,0,0,1,13.34-1.25v-4.63q0-6.14-2.74-9.46t-8.14-3.31a15.86,15.86,0,0,0-5.65.89,20.23,20.23,0,0,0-3.94,2,24.72,24.72,0,0,0-2.63,2,2.88,2.88,0,0,1-1.71.89,1.5,1.5,0,0,1-1.38-.8l-0.78-1.29a26.69,26.69,0,0,1,7.56-5.25,21.7,21.7,0,0,1,9-1.78,16.94,16.94,0,0,1,6.46,1.13,11.93,11.93,0,0,1,4.59,3.25,14.06,14.06,0,0,1,2.74,5.12,22.75,22.75,0,0,1,.92,6.7v28.84h-1.75Zm-18.44-2.36a20.3,20.3,0,0,0,4.91-.56,18.58,18.58,0,0,0,4.15-1.56,20.42,20.42,0,0,0,3.57-2.38q1.66-1.38,3.27-3V769.55a84.74,84.74,0,0,0-11.27,1,33.41,33.41,0,0,0-7.79,2.11,11.4,11.4,0,0,0-4.52,3.18,6.62,6.62,0,0,0-1.45,4.21,9,9,0,0,0,.76,3.85,7.67,7.67,0,0,0,2,2.67,7.93,7.93,0,0,0,2.9,1.54A12.12,12.12,0,0,0,1052.2,788.55Z" transform="translate(-372.2 -680.65)" style="fill:#393e42"/><path d="M1084.38,790.91V746.63h2.3a1.67,1.67,0,0,1,1.13.31,1.52,1.52,0,0,1,.39,1.07l0.37,9.34a21.05,21.05,0,0,1,5.9-8.43,13.78,13.78,0,0,1,9.08-3,16.28,16.28,0,0,1,3.83.42,15,15,0,0,1,3.32,1.22l-0.6,2.94a0.83,0.83,0,0,1-.92.71,2.57,2.57,0,0,1-.79-0.18q-0.51-.18-1.27-0.4a15.42,15.42,0,0,0-1.87-.4,16.14,16.14,0,0,0-2.54-.18,12,12,0,0,0-8.55,3.12,22.11,22.11,0,0,0-5.42,9v28.79h-4.38Z" transform="translate(-372.2 -680.65)" style="fill:#393e42"/><path d="M467,739.43q3.83-5.79,3.83-18.42,0-19.66-20.29-19.67-10.35,0-14.49,5.8-2.9,3.73-2.9,15T438,739.33q4.86,5.9,15,5.9T467,739.43Z" transform="translate(-372.2 -680.65)" style="fill:#3a3e42"/><path d="M496.71,699.78a29.92,29.92,0,0,1-5.8,1.57q6,8.9,6,21.53,0,17-13.35,28T449.93,762q-2.9,0-5.17-.21L442.47,768a4.08,4.08,0,0,0-.41,1.86q0,2.07,5.38,2.9T463.59,775q10.76,1.45,16.35,2.28,12.21,2.07,17.8,7.87t5.59,16.56q0,15.31-14.11,26.3a77.45,77.45,0,0,0,38-66.66h0A77.36,77.36,0,0,0,496.71,699.78Z" transform="translate(-372.2 -680.65)" style="fill:#3a3e42"/><path d="M427.16,800.5v14.08a57.78,57.78,0,0,0,26.19,5.8q14.59,0,21.32-2.69t6.73-10.76q0-7-13.46-8.49Q447,796.15,435,793.88,419.29,791,419.29,775l10.76-16.15q-23-10.76-23-34.78,0-15.53,11.8-27.22t36-11.7h9a77.85,77.85,0,0,0-14.22-1.32h0a77.5,77.5,0,0,0-77.5,77.5h0a77.42,77.42,0,0,0,34.31,64.36L411,800.5h16.15Z" transform="translate(-372.2 -680.65)" style="fill:#3a3e42"/><path d="M503.75,695.76V680.65a126.31,126.31,0,0,1-18.32,3.93q-6,.61-21.51.62a77.12,77.12,0,0,1,32.8,14.58A25.8,25.8,0,0,0,503.75,695.76Z" transform="translate(-372.2 -680.65)" style="fill:#3a3e42"/></svg>